<svg xmlns="http://www.w3.org/2000/svg" width="32.77" height="30.7" viewBox="0 0 32.77 30.7">
  <g id="Group_36058" data-name="Group 36058" transform="translate(-367.855 -7.191)">
    <g id="Component_482_4" data-name="Component 482 – 4" transform="translate(368.355 11.103)">
      <path id="Path_32300" data-name="Path 32300" d="M975.74,11.523a2.287,2.287,0,0,0,.076-.537,10.55,10.55,0,0,1,2.394-5.448,13.535,13.535,0,0,1,5.539-3.97,15.407,15.407,0,0,1,3.457-.935A16.6,16.6,0,0,1,991.062.5a15.417,15.417,0,0,1,5.467,1.46,12.845,12.845,0,0,1,5.534,4.846,10.05,10.05,0,0,1,1.526,6.249,10.39,10.39,0,0,1-2.292,5.667,13.324,13.324,0,0,1-5.147,3.921,15.4,15.4,0,0,1-4.528,1.229,16.158,16.158,0,0,1-7.8-.971.226.226,0,0,0-.231.043l-5.025,3.211-.127.081c.035-.267.066-.513.1-.758q.223-1.654.447-3.309c.089-.657.174-1.315.269-1.971a.212.212,0,0,0-.075-.208,11.575,11.575,0,0,1-2.709-4.005,10.151,10.151,0,0,1-.7-3.029c0-.026.009-.059-.028-.072Zm4.34,12.149c.067-.039.112-.063.154-.09l2.737-1.729a.392.392,0,0,1,.183-.067c.293-.025.586-.049.877-.086a.68.68,0,0,1,.344.042,15.042,15.042,0,0,0,10.877-.094,12.056,12.056,0,0,0,5.227-3.927,9.034,9.034,0,0,0,1.885-5.23,8.8,8.8,0,0,0-1.28-4.862,11.291,11.291,0,0,0-4.577-4.246,14.628,14.628,0,0,0-9.375-1.439,13.548,13.548,0,0,0-4.726,1.7,11.128,11.128,0,0,0-4.231,4.208,8.712,8.712,0,0,0-1,5.982,9.577,9.577,0,0,0,2.352,4.654,3.925,3.925,0,0,1,.654.721,7.084,7.084,0,0,1,.331.919.525.525,0,0,0,.023.067.182.182,0,0,1,.011.111q-.175,1.267-.35,2.533C980.155,23.105,980.119,23.376,980.08,23.672Z" transform="translate(-975.74 -0.447)" fill="#fff" stroke="#fff" stroke-width="1"/>
      <path id="Path_32301" data-name="Path 32301" d="M1220.941,184.955a1.639,1.639,0,1,1-1.638-1.634A1.634,1.634,0,0,1,1220.941,184.955Z" transform="translate(-1204.969 -173.724)" fill="#fff" stroke="#fff" stroke-width="1"/>
      <path id="Path_32302" data-name="Path 32302" d="M1095.6,186.6a1.638,1.638,0,1,1,1.63-1.641A1.639,1.639,0,0,1,1095.6,186.6Z" transform="translate(-1087.755 -173.723)" fill="#fff" stroke="#fff" stroke-width="1"/>
      <path id="Path_32303" data-name="Path 32303" d="M1343.059,186.6a1.638,1.638,0,1,1,1.642-1.632A1.642,1.642,0,0,1,1343.059,186.6Z" transform="translate(-1322.232 -173.725)" fill="#fff" stroke="#fff" stroke-width="1"/>
    </g>
    <g id="Group_34979" data-name="Group 34979">
      <circle id="Ellipse_843" data-name="Ellipse 843" cx="6.125" cy="6.125" r="6.125" transform="translate(388.375 7.191)" fill="#cc4f4f"/>
      <text id="_٣" data-name="٣" transform="translate(390.493 9.862)" fill="#fff" font-size="7" font-family="SegoeUI, Segoe UI"><tspan x="1.961" y="8">٣</tspan></text>
    </g>
  </g>
</svg>
