<svg xmlns="http://www.w3.org/2000/svg" width="27" height="27" viewBox="0 0 27 27">
  <g id="Group_31973" data-name="Group 31973" transform="translate(-104.629 174.371)">
    <rect id="Rectangle_5351" data-name="Rectangle 5351" width="27" height="27" transform="translate(104.629 -174.371)" fill="none"/>
    <path id="person_FILL0_wght400_GRAD0_opsz48_1_" data-name="person_FILL0_wght400_GRAD0_opsz48 (1)" d="M20.28,20.463a5.521,5.521,0,0,1-5.756-5.756A5.521,5.521,0,0,1,20.28,8.95a5.521,5.521,0,0,1,5.756,5.756,5.521,5.521,0,0,1-5.756,5.756ZM8,32.782V29.174a4.223,4.223,0,0,1,.729-2.494,4.681,4.681,0,0,1,1.88-1.573,28.845,28.845,0,0,1,4.931-1.727A19.935,19.935,0,0,1,20.28,22.8,19.1,19.1,0,0,1,25,23.4a32.69,32.69,0,0,1,4.912,1.708,4.627,4.627,0,0,1,1.919,1.573,4.223,4.223,0,0,1,.729,2.494v3.607Zm2.3-2.3H30.258v-1.3A2.1,2.1,0,0,0,29.894,28a2.311,2.311,0,0,0-.9-.825,20.378,20.378,0,0,0-4.49-1.631,19.855,19.855,0,0,0-4.221-.441,20.4,20.4,0,0,0-4.26.441,19.491,19.491,0,0,0-4.49,1.631,2.309,2.309,0,0,0-1.228,2ZM20.28,18.16a3.347,3.347,0,0,0,3.454-3.454,3.347,3.347,0,0,0-3.454-3.454,3.347,3.347,0,0,0-3.454,3.454A3.347,3.347,0,0,0,20.28,18.16ZM20.28,14.706ZM20.28,30.479Z" transform="translate(97.881 -182.069)" fill="#fff"/>
  </g>
</svg>
