<svg xmlns="http://www.w3.org/2000/svg" width="26" height="26" viewBox="0 0 26 26">
  <g id="Group_36109" data-name="Group 36109" transform="translate(-86.746 -12)">
    <circle id="Ellipse_955" data-name="Ellipse 955" cx="13" cy="13" r="13" transform="translate(86.746 12)" fill="#518432"/>
    <path id="Path_33248" data-name="Path 33248" d="M14.644,13.865h-9.8V7.658a2.369,2.369,0,0,0,1.47-.777,2.061,2.061,0,0,0,3.173.093,2.061,2.061,0,0,0,3.174-.094,2.388,2.388,0,0,0,1.469.786v3.619a.516.516,0,1,0,1.032,0V7.556a2,2,0,0,0,.961-2.981L14.94,2.8a1.8,1.8,0,0,0-1.5-.8H8.969a.516.516,0,1,0,0,1.032h4.468a.772.772,0,0,1,.644.345l1.18,1.771a.97.97,0,0,1-.688,1.5,1.4,1.4,0,0,1-1.489-1.142.516.516,0,0,0-1.021.105,1.032,1.032,0,0,1-2.063,0,.516.516,0,0,0-1.032,0,1.032,1.032,0,1,1-2.063,0A.516.516,0,0,0,6.443,5.1a.522.522,0,0,0-.558.408A1.4,1.4,0,0,1,4.4,6.647a1.03,1.03,0,0,1-.158-.034.9.9,0,0,1-.6-.568,1.074,1.074,0,0,1,.112-.965l1.135-1.7a.772.772,0,0,1,.644-.345H6.906A.516.516,0,0,0,6.906,2H5.533a1.8,1.8,0,0,0-1.5.8L2.9,4.507A2.112,2.112,0,0,0,2.673,6.4,1.919,1.919,0,0,0,3.811,7.546v6.319H3.3a.516.516,0,0,0,0,1.032H14.644a.516.516,0,0,0,0-1.032Z" transform="translate(90.563 16.552)" fill="#fff"/>
  </g>
</svg>
