<svg xmlns="http://www.w3.org/2000/svg" width="26" height="26" viewBox="0 0 26 26">
  <g id="Group_36108" data-name="Group 36108" transform="translate(-96.75 -12)">
    <circle id="Ellipse_954" data-name="Ellipse 954" cx="13" cy="13" r="13" transform="translate(96.75 12)" fill="#fff"/>
    <g id="Group_36107" data-name="Group 36107">
      <g id="Group_36106" data-name="Group 36106">
        <g id="Group_36099" data-name="Group 36099" transform="translate(99.566 16.261)">
          <path id="Path_33247" data-name="Path 33247" d="M17.952,16.716l-2.7-10.792s0-.006,0-.01a.648.648,0,0,0-.036-.076A.617.617,0,0,0,15.14,5.7s0-.011-.009-.016a.51.51,0,0,0-.057-.043.544.544,0,0,0-.116-.087.536.536,0,0,0-.094-.034.573.573,0,0,0-.129-.028c-.015,0-.028-.009-.044-.009H12.949V4.9a2.9,2.9,0,1,0-5.807,0v.581H5.4a.58.58,0,0,0-.574.495L3.2,16.833a1.241,1.241,0,0,0,1.228,1.426h8.523a.58.58,0,0,0,.574-.495l1.31-8.735L16.825,17a.082.082,0,0,1-.078.1H15.272a.581.581,0,0,0,0,1.161h1.476a1.241,1.241,0,0,0,1.2-1.543Zm-5.5.382H4.426a.079.079,0,0,1-.062-.028.075.075,0,0,1-.019-.064L5.9,6.645H7.142v.581a.581.581,0,0,0,1.161,0V4.9a1.742,1.742,0,1,1,3.484,0v.581H10.045a.581.581,0,1,0,0,1.161h1.742v.581a.581.581,0,1,0,1.161,0V6.645h1.068Z" transform="translate(-0.64 -2.363)" fill="#518432"/>
        </g>
      </g>
    </g>
  </g>
</svg>
