<svg xmlns="http://www.w3.org/2000/svg" xmlns:xlink="http://www.w3.org/1999/xlink" width="56" height="56" viewBox="0 0 56 56">
  <defs>
    <filter id="Ellipse_42" x="0" y="0" width="56" height="56" filterUnits="userSpaceOnUse">
      <feOffset dy="3" input="SourceAlpha"/>
      <feGaussianBlur stdDeviation="3" result="blur"/>
      <feFlood flood-opacity="0.341"/>
      <feComposite operator="in" in2="blur"/>
      <feComposite in="SourceGraphic"/>
    </filter>
  </defs>
  <g id="Group_17447" data-name="Group 17447" transform="translate(8.574 6.218)">
    <g transform="matrix(1, 0, 0, 1, -8.57, -6.22)" filter="url(#Ellipse_42)">
      <g id="Ellipse_42-2" data-name="Ellipse 42" transform="translate(9 6)" fill="rgba(250,250,250,0.17)" stroke="#fff" stroke-width="2">
        <circle cx="19" cy="19" r="19" stroke="none"/>
        <circle cx="19" cy="19" r="18" fill="none"/>
      </g>
    </g>
    <path id="Path_11604" data-name="Path 11604" d="M19.323,5a6.744,6.744,0,0,0-4.962,2.194A6.744,6.744,0,0,0,9.4,5a5.867,5.867,0,0,0-6.065,5.774c0,3.968,3.749,7.2,9.428,12.115l1.6,1.375,1.6-1.386c5.679-4.9,9.428-8.136,9.428-12.1A5.867,5.867,0,0,0,19.323,5Z" transform="translate(4.883 6.575)" fill="none" stroke="#fff" stroke-width="2"/>
  </g>
</svg>
