<svg xmlns="http://www.w3.org/2000/svg" width="33.125" height="33.808" viewBox="0 0 33.125 33.808">
  <g id="Group_36057" data-name="Group 36057" transform="translate(-507.5 -7.191)">
    <g id="Group_31975" data-name="Group 31975" transform="translate(477.445 185.946)">
      <rect id="Rectangle_5353" data-name="Rectangle 5353" width="28.999" height="28.999" transform="translate(30.055 -173.946)" fill="none"/>
      <path id="shopping_cart_FILL0_wght400_GRAD0_opsz48_1_" data-name="shopping_cart_FILL0_wght400_GRAD0_opsz48 (1)" d="M10.308,30.267a2.367,2.367,0,1,1,1.677-4.044,2.367,2.367,0,0,1-1.677,4.044Zm13.15,0a2.357,2.357,0,1,1,1.677-.69A2.283,2.283,0,0,1,23.458,30.267ZM8.6,8.57l3.616,7.5h9.468l4.109-7.5ZM7.613,6.6H26.976a1.254,1.254,0,0,1,1.151.69,1.307,1.307,0,0,1,0,1.381l-4.438,7.989a2.942,2.942,0,0,1-.937,1,2.257,2.257,0,0,1-1.266.378H11.525L9.684,21.456H25.825v1.972H9.98a2.206,2.206,0,0,1-1.989-.92,1.891,1.891,0,0,1,.016-2.071l2.1-3.879-5-10.586H2.55V4H6.4Zm4.6,9.468h0Z" transform="translate(29.438 -177.04)" fill="#fff"/>
    </g>
    <g id="Group_34981" data-name="Group 34981" transform="translate(140)">
      <circle id="Ellipse_843" data-name="Ellipse 843" cx="6.125" cy="6.125" r="6.125" transform="translate(388.375 7.191)" fill="#cc4f4f"/>
      <text id="_٣" data-name="٣" transform="translate(390.493 9.862)" fill="#fff" font-size="7" font-family="SegoeUI, Segoe UI"><tspan x="1.961" y="8">٣</tspan></text>
    </g>
  </g>
</svg>
