<svg id="Group_32082" data-name="Group 32082" xmlns="http://www.w3.org/2000/svg" width="193.499" height="66.307" viewBox="0 0 193.499 66.307">
  <path id="Path_1" data-name="Path 1" d="M312.188,443.582c-31.671,5.758-15.672,45.985-38.87,57.584C304.989,506.925,296.352,457.978,312.188,443.582Z" transform="translate(-268.267 -443.582)" fill="#b58617"/>
  <path id="Path_2" data-name="Path 2" d="M310.028,555.2c-11.877,3.239-14.756,26.993-36.71,18.715C290.953,569.24,285.195,550.524,310.028,555.2Z" transform="translate(-268.267 -516.334)" fill="#518432"/>
  <path id="Path_3" data-name="Path 3" d="M368.541,478.73a.568.568,0,0,0-1.043.045c-.93,2.423-2.775,8.089-1.674,12.492,1.225,4.9,8.18,18.654,10.229,22.651a1.509,1.509,0,0,1-.5,1.945,7.3,7.3,0,0,1-3.973,1.317v1.44h19.435l.72-1.44a7.18,7.18,0,0,1-5.758-3.6C384.062,510.386,371.368,484.5,368.541,478.73Z" transform="translate(-328.742 -466.434)" fill="#518432"/>
  <g id="Group_1" data-name="Group 1" transform="translate(0 7.847)">
    <path id="Path_4" data-name="Path 4" d="M314.609,514.857v1.409a6.124,6.124,0,0,1-6.116,6.116H267.226a6.124,6.124,0,0,1-6.117-6.116V475a6.123,6.123,0,0,1,6.117-6.116h13.3V466.4h-13.3a8.606,8.606,0,0,0-8.6,8.6v41.267a8.606,8.606,0,0,0,8.6,8.6h41.267a8.606,8.606,0,0,0,8.6-8.6v-1.409Z" transform="translate(-258.629 -466.403)" fill="#b58617"/>
    <path id="Path_5" data-name="Path 5" d="M403.718,475v20.726h2.48V475a8.606,8.606,0,0,0-8.6-8.6h-3.166v2.48H397.6A6.123,6.123,0,0,1,403.718,475Z" transform="translate(-347.739 -466.403)" fill="#b58617"/>
  </g>
  <g id="Group_7" data-name="Group 7" transform="translate(70.699 20.604)">
    <g id="Group_3" data-name="Group 3" transform="translate(0)">
      <g id="Group_2" data-name="Group 2">
        <path id="Path_6" data-name="Path 6" d="M470.6,524.454a6.361,6.361,0,0,1-6.36-6.36v-8.23a6.361,6.361,0,0,1,6.36-6.36h8.231a6.361,6.361,0,0,1,6.36,6.36v.374H480.7v-.374a1.865,1.865,0,0,0-1.871-1.871H470.6a1.866,1.866,0,0,0-1.871,1.871v8.23a1.865,1.865,0,0,0,1.871,1.87h8.231a1.865,1.865,0,0,0,1.871-1.87v-1.871h-8.231v-4.49h12.72v6.36a6.361,6.361,0,0,1-6.36,6.36Z" transform="translate(-464.239 -503.503)" fill="#518432"/>
        <path id="Path_7" data-name="Path 7" d="M550.639,503.5a6.359,6.359,0,0,1,4.849,10.475A6.1,6.1,0,0,1,557,518.094v6.36H552.51v-6.36a1.865,1.865,0,0,0-1.871-1.871h-10.1v8.23h-4.49V503.5Zm1.871,6.36a1.865,1.865,0,0,0-1.871-1.871h-10.1v3.741h10.1a1.865,1.865,0,0,0,1.871-1.87Z" transform="translate(-511.356 -503.503)" fill="#518432"/>
        <path id="Path_8" data-name="Path 8" d="M612.348,503.5v20.951h-4.49V503.5Z" transform="translate(-558.474 -503.503)" fill="#518432"/>
      </g>
    </g>
    <g id="Group_4" data-name="Group 4" transform="translate(59.057 0.48)">
      <path id="Path_9" data-name="Path 9" d="M637.847,524.816h-1.856v-19.67h2.8l7.451,16.9,7.479-16.9h2.769v19.67h-1.856V507.744l-7.508,17.072h-1.742l-7.536-17.072Z" transform="translate(-635.991 -505.061)" fill="#b58617"/>
      <path id="Path_10" data-name="Path 10" d="M707.083,524.816h-1.856v-19.67h1.856Z" transform="translate(-681.42 -505.061)" fill="#b58617"/>
      <path id="Path_11" data-name="Path 11" d="M725.1,524.767a25.755,25.755,0,0,1-8.079-1.141l.485-1.656a29.114,29.114,0,0,0,7.422,1.114c3.454,0,7.708-.514,7.708-4.2,0-2.512-3-3.111-6.737-3.34-4.111-.257-8.964-.713-8.964-5.081,0-4.568,4.511-5.567,8.621-5.567a32.774,32.774,0,0,1,6.852.828l-.343,1.684a37.808,37.808,0,0,0-6.509-.8c-3.2,0-6.594.628-6.594,3.711s3.768,3.111,7.165,3.34c4,.257,8.507.8,8.507,5.224C734.631,523.71,729.664,524.767,725.1,524.767Z" transform="translate(-689.101 -504.898)" fill="#b58617"/>
      <path id="Path_12" data-name="Path 12" d="M790.217,524.816h-2.4l-4.625-5.967c-.6.057-1.227.086-1.827.086h-4.853v5.881H774.63v-19.67h6.737c4.625,0,9.335,1.37,9.335,6.709,0,3.854-2.455,5.824-5.567,6.651Zm-8.964-7.537c4,0,7.479-1.056,7.479-5.424,0-4.111-3.483-5.025-7.479-5.025h-4.739v10.448Z" transform="translate(-726.959 -505.061)" fill="#b58617"/>
    </g>
    <g id="Group_6" data-name="Group 6" transform="translate(0.695 25.634)">
      <g id="Group_5" data-name="Group 5">
        <path id="Path_13" data-name="Path 13" d="M471.513,584.675h.385v.7h-.486a1.721,1.721,0,0,1-1.687-.95,1.934,1.934,0,0,1-1.449.612,1.838,1.838,0,0,1-1.54-.737,2.479,2.479,0,0,1-.476-1.551,2.4,2.4,0,0,1,.634-1.743,1.945,1.945,0,0,1,2.6-.146v-.611l.758-.4v3.532A1.126,1.126,0,0,0,471.513,584.675ZM469.5,581.72a1.523,1.523,0,0,0-1.212-.6,1.119,1.119,0,0,0-.923.459,1.873,1.873,0,0,0-.357,1.183,1.82,1.82,0,0,0,.357,1.178,1.144,1.144,0,0,0,.935.441,1.48,1.48,0,0,0,1.222-.644,3.2,3.2,0,0,1-.022-.33Zm-1.472-2.74a.415.415,0,0,1-.464-.476.406.406,0,0,1,.464-.452.4.4,0,0,1,.441.452C468.468,578.823,468.321,578.98,468.026,578.98Zm1.29,0a.415.415,0,0,1-.465-.476.406.406,0,0,1,.465-.452.4.4,0,0,1,.442.452C469.758,578.823,469.611,578.98,469.316,578.98Z" transform="translate(-466.26 -578.052)" fill="#518432"/>
        <path id="Path_14" data-name="Path 14" d="M485.643,589.408h.4v.7h-.487a1.774,1.774,0,0,1-1.528-.69,1.824,1.824,0,0,1-1.539.69H482v-.7h.4q1.244,0,1.245-1.291v-2.456l.758-.4v2.852Q484.4,589.408,485.643,589.408Zm-2.569,1.891a.464.464,0,1,1-.453.464A.405.405,0,0,1,483.074,591.3Zm1.289,0a.464.464,0,1,1-.452.464A.405.405,0,0,1,484.363,591.3Z" transform="translate(-476.587 -582.785)" fill="#518432"/>
        <path id="Path_15" data-name="Path 15" d="M493.093,585.484v-.7h.4q1.246,0,1.245-1.291v-2.456l.758-.4v2.874a1.961,1.961,0,0,1-.554,1.484,1.886,1.886,0,0,1-1.359.486Zm1.969-6.339a.415.415,0,0,1-.464-.476.405.405,0,0,1,.464-.453.4.4,0,0,1,.442.453C495.5,578.987,495.357,579.146,495.062,579.146Z" transform="translate(-483.867 -578.16)" fill="#518432"/>
        <path id="Path_16" data-name="Path 16" d="M508.543,589.429a2.434,2.434,0,0,1-1.223.272,1.8,1.8,0,0,1-1.539-.758,2.684,2.684,0,0,1-.476-1.631,2.585,2.585,0,0,1,.634-1.855,1.928,1.928,0,0,1,1.472-.589,1.814,1.814,0,0,1,1.449.589,2,2,0,0,1,.442,1.358v2.49a3.153,3.153,0,0,1-.442,1.738,1.984,1.984,0,0,1-1.257.878,2.1,2.1,0,0,1-.589.079,2.792,2.792,0,0,1-1.28-.317v-.668a2.449,2.449,0,0,0,1.166.317,1.6,1.6,0,0,0,.816-.2A1.765,1.765,0,0,0,508.543,589.429Zm0-2.546q0-1.324-1.132-1.326a1.213,1.213,0,0,0-1,.465,2.01,2.01,0,0,0-.367,1.279,2.063,2.063,0,0,0,.351,1.262,1.124,1.124,0,0,0,.951.47,1.3,1.3,0,0,0,1.2-.5Z" transform="translate(-491.879 -582.524)" fill="#518432"/>
        <path id="Path_17" data-name="Path 17" d="M523.747,589.408h.4v.7h-.488a1.928,1.928,0,0,1-1.166-.338,2.271,2.271,0,0,1-2.286,2.5,2.714,2.714,0,0,1-1.268-.317v-.668a2.419,2.419,0,0,0,1.177.317,1.6,1.6,0,0,0,.838-.215,1.9,1.9,0,0,0,.792-1.777v-3.951l.747-.4v.011l.011-.011v2.852Q522.5,589.408,523.747,589.408Z" transform="translate(-500.823 -582.785)" fill="#518432"/>
        <path id="Path_18" data-name="Path 18" d="M537.066,584.848h.4v.7h-.486a1.774,1.774,0,0,1-1.529-.69,1.824,1.824,0,0,1-1.54.69h-.487v-.7h.4q1.245,0,1.246-1.291V581.1l.758-.4v2.851Q535.82,584.848,537.066,584.848Zm-2.5-5.6a.464.464,0,1,1,.452-.464A.405.405,0,0,1,534.565,579.244Zm1.29,0a.464.464,0,1,1,.453-.464A.405.405,0,0,1,535.854,579.244Z" transform="translate(-510.327 -578.225)" fill="#518432"/>
        <path id="Path_19" data-name="Path 19" d="M550.526,584.719h.283v.7h-.373a2.049,2.049,0,0,0-3.068,0h-2.853v-.7h2.774q1.234,0,1.234-1.324v-.113a1.576,1.576,0,0,0-.679-1.393,2.306,2.306,0,0,0-1.359-.386,3.583,3.583,0,0,0-1.211.216v-.747l2.571-2.853h.781l-2.321,2.625c.076-.006.154-.01.238-.01a2.889,2.889,0,0,1,1.81.555,2.358,2.358,0,0,1,.929,1.981v.158Q549.281,584.719,550.526,584.719Z" transform="translate(-517.607 -578.096)" fill="#518432"/>
        <path id="Path_20" data-name="Path 20" d="M562.162,585.42v-.7h.317a1.161,1.161,0,0,0,1.29-1.336v-4.867l.758-.4v5.275a2.025,2.025,0,0,1-.566,1.517,1.946,1.946,0,0,1-1.4.509Z" transform="translate(-529.186 -578.096)" fill="#518432"/>
        <path id="Path_21" data-name="Path 21" d="M577.884,578.515l.748-.4v5.275a2.029,2.029,0,0,1-.566,1.517,1.907,1.907,0,0,1-1.393.509H572.96l.362-.7h1.732v-4.731l.747-.4v5.128h.792a1.161,1.161,0,0,0,1.29-1.336Zm-1.891,8.445a.732.732,0,0,0-.44-.17.429.429,0,0,0-.307.119.374.374,0,0,0-.124.278.61.61,0,0,0,.158.385h1l-.215.407h-1.754l.214-.407h.3a.832.832,0,0,1-.114-.408.738.738,0,0,1,.238-.548.783.783,0,0,1,.566-.232.909.909,0,0,1,.486.147Z" transform="translate(-536.271 -578.096)" fill="#518432"/>
        <path id="Path_22" data-name="Path 22" d="M595.676,585.42v-6.9l.758-.4v7.3Z" transform="translate(-551.176 -578.096)" fill="#518432"/>
        <path id="Path_23" data-name="Path 23" d="M617.357,584.675h.385v.7h-.486a1.722,1.722,0,0,1-1.687-.95,1.932,1.932,0,0,1-1.448.612,1.841,1.841,0,0,1-1.541-.737,2.488,2.488,0,0,1-.474-1.551,2.4,2.4,0,0,1,.634-1.743,1.944,1.944,0,0,1,2.6-.146v-.611l.758-.4v3.532A1.126,1.126,0,0,0,617.357,584.675Zm-2.015-2.954a1.523,1.523,0,0,0-1.211-.6,1.118,1.118,0,0,0-.923.459,1.877,1.877,0,0,0-.356,1.183,1.824,1.824,0,0,0,.356,1.178,1.143,1.143,0,0,0,.934.441,1.478,1.478,0,0,0,1.222-.644,3.076,3.076,0,0,1-.022-.33Zm-1.472-2.74a.415.415,0,0,1-.464-.476.405.405,0,0,1,.464-.452.4.4,0,0,1,.442.452C614.312,578.823,614.165,578.98,613.87,578.98Zm1.291,0a.415.415,0,0,1-.464-.476.405.405,0,0,1,.464-.452.4.4,0,0,1,.441.452C615.6,578.823,615.455,578.98,615.161,578.98Z" transform="translate(-561.956 -578.052)" fill="#518432"/>
        <path id="Path_24" data-name="Path 24" d="M631.487,589.408h.4v.7H631.4a1.773,1.773,0,0,1-1.528-.69,1.826,1.826,0,0,1-1.539.69h-.487v-.7h.4q1.244,0,1.245-1.291v-2.456l.759-.4v2.852Q630.241,589.408,631.487,589.408Zm-2.57,1.891a.464.464,0,1,1-.453.464A.406.406,0,0,1,628.917,591.3Zm1.29,0a.464.464,0,1,1-.453.464A.406.406,0,0,1,630.206,591.3Z" transform="translate(-572.281 -582.785)" fill="#518432"/>
        <path id="Path_25" data-name="Path 25" d="M644.732,589.146v.7h-5.8v-.7h1.9a2.628,2.628,0,0,1-.713-1.925,2.257,2.257,0,0,1,.781-1.81,2.222,2.222,0,0,1,1.459-.544,2.115,2.115,0,0,1,1.823.917v.747a2.049,2.049,0,0,0-1.743-.974h-.034a1.422,1.422,0,0,0-1.1.465,1.737,1.737,0,0,0-.426,1.223,1.878,1.878,0,0,0,.521,1.391,1.781,1.781,0,0,0,1.335.51Z" transform="translate(-579.562 -582.524)" fill="#518432"/>
        <path id="Path_26" data-name="Path 26" d="M660.7,585.42v-6.9l.757-.4v7.3Z" transform="translate(-593.841 -578.096)" fill="#518432"/>
        <path id="Path_27" data-name="Path 27" d="M668.794,589.566a2.392,2.392,0,0,1-1.518,2.581,2.328,2.328,0,0,1-.769.125,2.717,2.717,0,0,1-1.268-.317v-.668a2.422,2.422,0,0,0,1.178.317,1.608,1.608,0,0,0,.838-.215,1.9,1.9,0,0,0,.791-1.777v-3.951l.748-.4Z" transform="translate(-596.82 -582.785)" fill="#518432"/>
        <path id="Path_28" data-name="Path 28" d="M682.723,584.783h.4v.7h-.487a1.923,1.923,0,0,1-1.165-.338,2.273,2.273,0,0,1-2.288,2.5,2.716,2.716,0,0,1-1.268-.317v-.668a2.429,2.429,0,0,0,1.178.316,1.607,1.607,0,0,0,.837-.214,1.9,1.9,0,0,0,.792-1.778v-3.95l.749-.4v.011l.009-.011v2.852A1.122,1.122,0,0,0,682.723,584.783Zm-1.7-5.637a.415.415,0,0,1-.464-.476.4.4,0,0,1,.464-.453.4.4,0,0,1,.443.453C681.468,578.987,681.318,579.146,681.025,579.146Z" transform="translate(-605.135 -578.16)" fill="#518432"/>
        <path id="Path_29" data-name="Path 29" d="M692.4,585.42v-.7h.317a1.162,1.162,0,0,0,1.291-1.336v-4.867l.758-.4v5.275a2.028,2.028,0,0,1-.567,1.517,1.947,1.947,0,0,1-1.4.509Z" transform="translate(-614.642 -578.096)" fill="#518432"/>
        <path id="Path_30" data-name="Path 30" d="M705.5,585.42v-6.9l.758-.4v7.3Z" transform="translate(-623.239 -578.096)" fill="#518432"/>
        <path id="Path_31" data-name="Path 31" d="M727.183,584.675h.385v.7h-.487a1.72,1.72,0,0,1-1.687-.95,1.936,1.936,0,0,1-1.449.612,1.834,1.834,0,0,1-1.538-.737,2.473,2.473,0,0,1-.477-1.551,2.408,2.408,0,0,1,.634-1.743,1.943,1.943,0,0,1,2.6-.146v-.611l.759-.4v3.532A1.127,1.127,0,0,0,727.183,584.675Zm-2.016-2.954a1.517,1.517,0,0,0-1.21-.6,1.12,1.12,0,0,0-.923.459,1.876,1.876,0,0,0-.357,1.183,1.823,1.823,0,0,0,.357,1.178,1.145,1.145,0,0,0,.934.441,1.481,1.481,0,0,0,1.223-.644,3.243,3.243,0,0,1-.024-.33Zm-1.47-2.74a.415.415,0,0,1-.464-.476.4.4,0,0,1,.464-.452.4.4,0,0,1,.441.452C724.137,578.823,723.99,578.98,723.7,578.98Zm1.29,0a.415.415,0,0,1-.464-.476.405.405,0,0,1,.464-.452.4.4,0,0,1,.442.452C725.427,578.823,725.28,578.98,724.986,578.98Z" transform="translate(-634.017 -578.052)" fill="#518432"/>
        <path id="Path_32" data-name="Path 32" d="M748.987,589.146h.4v.7H748.9a2.049,2.049,0,0,0-3.067,0h-4.607a1.775,1.775,0,0,1-1.529-.69,1.823,1.823,0,0,1-1.539.69h-.487v-.7h.4q1.247,0,1.245-1.291v-1.63l.758-.4v2.026q0,1.065.826,1.245a6.662,6.662,0,0,1,1.461-2.92,3.556,3.556,0,0,1,2.739-1.314,2.519,2.519,0,0,1,2.015.872,2.756,2.756,0,0,1,.634,1.845v.294A1.112,1.112,0,0,0,748.987,589.146Zm-3.216,0q1.212,0,1.212-1.336v-.226a2.029,2.029,0,0,0-.6-1.529,1.76,1.76,0,0,0-1.28-.5,3.009,3.009,0,0,0-2.354,1.246,6.394,6.394,0,0,0-1.177,2.343Z" transform="translate(-644.343 -582.524)" fill="#518432"/>
        <path id="Path_33" data-name="Path 33" d="M774.728,584.783h.4v.7h-.487a1.777,1.777,0,0,1-1.529-.691,1.823,1.823,0,0,1-1.539.691h-.487v-.7h.4q1.245,0,1.245-1.291v-2.456l.759-.4v2.852Q773.483,584.783,774.728,584.783Zm-1.755-5.637a.416.416,0,0,1-.464-.476.405.405,0,0,1,.464-.453.4.4,0,0,1,.442.453C773.416,578.987,773.268,579.146,772.974,579.146Z" transform="translate(-666.269 -578.16)" fill="#518432"/>
        <path id="Path_34" data-name="Path 34" d="M789.3,589.146h.386v.7h-.487a1.764,1.764,0,0,1-1.539-.713,2.051,2.051,0,0,1-3.441.012,1.809,1.809,0,0,1-1.55.7h-.488v-.7h.4a1.122,1.122,0,0,0,1.245-1.291v-.385a2.847,2.847,0,0,1,.633-1.992,1.906,1.906,0,0,1,1.483-.611,1.85,1.85,0,0,1,1.618.793,3.042,3.042,0,0,1,.486,1.81v.385A1.126,1.126,0,0,0,789.3,589.146Zm-3.362.227a1.145,1.145,0,0,0,.985-.516,2.388,2.388,0,0,0,.362-1.4q0-1.9-1.347-1.9t-1.358,1.9Q784.577,589.374,785.935,589.373Z" transform="translate(-673.548 -582.524)" fill="#518432"/>
        <path id="Path_35" data-name="Path 35" d="M803.345,585.42v-.7h.317a1.161,1.161,0,0,0,1.291-1.336v-4.867l.758-.4v5.275a2.026,2.026,0,0,1-.565,1.517,1.948,1.948,0,0,1-1.4.509Z" transform="translate(-687.438 -578.096)" fill="#518432"/>
        <path id="Path_36" data-name="Path 36" d="M816.451,585.42v-6.9l.758-.4v7.3Z" transform="translate(-696.038 -578.096)" fill="#518432"/>
      </g>
    </g>
  </g>
</svg>
