<svg xmlns="http://www.w3.org/2000/svg" width="350.701" height="120.175" viewBox="0 0 350.701 120.175">
  <g id="Group_32104" data-name="Group 32104" transform="translate(-7346.825 -2386.702)">
    <g id="Group_32082" data-name="Group 32082" transform="translate(7346.825 2386.702)">
      <path id="Path_1" data-name="Path 1" d="M343.766,443.582c-57.4,10.437-28.4,83.345-70.448,104.367C330.72,558.385,315.065,469.673,343.766,443.582Z" transform="translate(-264.164 -443.582)" fill="#b58617"/>
      <path id="Path_2" data-name="Path 2" d="M339.852,555.808c-21.526,5.87-26.744,48.922-66.534,33.919C305.281,581.248,294.844,547.328,339.852,555.808Z" transform="translate(-264.164 -485.36)" fill="#518432"/>
      <path id="Path_3" data-name="Path 3" d="M371.025,478.99a1.03,1.03,0,0,0-1.89.082c-1.685,4.391-5.029,14.66-3.034,22.641,2.22,8.879,14.826,33.809,18.539,41.054a2.734,2.734,0,0,1-.9,3.525,13.234,13.234,0,0,1-7.2,2.386v2.609h35.224l1.3-2.609a13.014,13.014,0,0,1-10.437-6.522C399.155,536.365,376.149,489.454,371.025,478.99Z" transform="translate(-298.892 -456.705)" fill="#518432"/>
      <g id="Group_1" data-name="Group 1" transform="translate(0 14.222)">
        <path id="Path_4" data-name="Path 4" d="M360.087,554.223v2.554A11.1,11.1,0,0,1,349,567.862H274.21a11.1,11.1,0,0,1-11.086-11.085V481.984A11.1,11.1,0,0,1,274.21,470.9h24.1v-4.5h-24.1a15.6,15.6,0,0,0-15.58,15.581v74.793a15.6,15.6,0,0,0,15.58,15.58H349a15.6,15.6,0,0,0,15.581-15.58v-2.554Z" transform="translate(-258.629 -466.403)" fill="#b58617"/>
        <path id="Path_5" data-name="Path 5" d="M411.259,481.984v37.564h4.5V481.984A15.6,15.6,0,0,0,400.174,466.4h-5.738v4.5h5.738A11.1,11.1,0,0,1,411.259,481.984Z" transform="translate(-309.801 -466.403)" fill="#b58617"/>
      </g>
      <g id="Group_7" data-name="Group 7" transform="translate(128.136 37.343)">
        <g id="Group_3" data-name="Group 3" transform="translate(0)">
          <g id="Group_2" data-name="Group 2">
            <path id="Path_6" data-name="Path 6" d="M475.766,541.474a11.529,11.529,0,0,1-11.527-11.527V515.03A11.529,11.529,0,0,1,475.766,503.5h14.918A11.528,11.528,0,0,1,502.21,515.03v.678h-8.136v-.678a3.381,3.381,0,0,0-3.39-3.391H475.766a3.381,3.381,0,0,0-3.39,3.391v14.917a3.38,3.38,0,0,0,3.39,3.39h14.918a3.38,3.38,0,0,0,3.39-3.39v-3.39H479.156V518.42H502.21v11.528a11.529,11.529,0,0,1-11.527,11.527Z" transform="translate(-464.239 -503.503)" fill="#518432"/>
            <path id="Path_7" data-name="Path 7" d="M562.492,503.5a11.526,11.526,0,0,1,8.788,18.986,11.052,11.052,0,0,1,2.74,7.458v11.527h-8.136V529.947a3.38,3.38,0,0,0-3.391-3.39H544.185v14.917h-8.137V503.5Zm3.391,11.527a3.381,3.381,0,0,0-3.391-3.391H544.185v6.78h18.307a3.379,3.379,0,0,0,3.391-3.389Z" transform="translate(-491.297 -503.503)" fill="#518432"/>
            <path id="Path_8" data-name="Path 8" d="M616,503.5v37.971h-8.137V503.5Z" transform="translate(-518.354 -503.503)" fill="#518432"/>
          </g>
        </g>
        <g id="Group_4" data-name="Group 4" transform="translate(107.036 0.869)">
          <path id="Path_9" data-name="Path 9" d="M639.354,540.8h-3.363v-35.65h5.071l13.5,30.63,13.556-30.63h5.019V540.8h-3.363V509.854L656.17,540.8h-3.156l-13.659-30.941Z" transform="translate(-635.991 -504.991)" fill="#b58617"/>
          <path id="Path_10" data-name="Path 10" d="M708.59,540.8h-3.363v-35.65h3.363Z" transform="translate(-662.079 -504.991)" fill="#b58617"/>
          <path id="Path_11" data-name="Path 11" d="M731.73,540.908a46.675,46.675,0,0,1-14.642-2.069l.879-3a52.77,52.77,0,0,0,13.452,2.019c6.261,0,13.97-.932,13.97-7.606,0-4.553-5.433-5.639-12.211-6.054-7.45-.466-16.246-1.293-16.246-9.21,0-8.279,8.175-10.089,15.625-10.089a59.4,59.4,0,0,1,12.418,1.5l-.621,3.052a68.518,68.518,0,0,0-11.8-1.448c-5.8,0-11.952,1.139-11.952,6.726s6.83,5.639,12.986,6.053c7.244.466,15.418,1.449,15.418,9.469C749.011,538.994,740.008,540.908,731.73,540.908Z" transform="translate(-666.49 -504.898)" fill="#b58617"/>
          <path id="Path_12" data-name="Path 12" d="M802.88,540.8h-4.346l-8.382-10.814c-1.086.1-2.224.155-3.311.155h-8.8V540.8H774.63v-35.65h12.21c8.382,0,16.919,2.484,16.919,12.159,0,6.985-4.449,10.555-10.089,12.055Zm-16.246-13.66c7.243,0,13.556-1.914,13.556-9.83,0-7.451-6.312-9.107-13.556-9.107h-8.589v18.937Z" transform="translate(-688.23 -504.991)" fill="#b58617"/>
        </g>
        <g id="Group_6" data-name="Group 6" transform="translate(1.259 46.459)">
          <g id="Group_5" data-name="Group 5">
            <path id="Path_13" data-name="Path 13" d="M475.781,590.055h.7v1.271H475.6a3.12,3.12,0,0,1-3.058-1.722,3.505,3.505,0,0,1-2.626,1.109,3.331,3.331,0,0,1-2.791-1.336,4.494,4.494,0,0,1-.862-2.812,4.357,4.357,0,0,1,1.149-3.159,3.524,3.524,0,0,1,4.72-.265v-1.108l1.373-.719v6.4A2.041,2.041,0,0,0,475.781,590.055Zm-3.651-5.355a2.759,2.759,0,0,0-2.2-1.089,2.028,2.028,0,0,0-1.672.832,3.394,3.394,0,0,0-.646,2.144,3.3,3.3,0,0,0,.646,2.134,2.072,2.072,0,0,0,1.694.8,2.682,2.682,0,0,0,2.215-1.168,5.8,5.8,0,0,1-.04-.6Zm-2.668-4.966a.752.752,0,0,1-.841-.862.735.735,0,0,1,.841-.82.717.717,0,0,1,.8.82C470.262,579.449,469.995,579.734,469.462,579.734Zm2.338,0a.753.753,0,0,1-.842-.862.735.735,0,0,1,.842-.82.717.717,0,0,1,.8.82C472.6,579.449,472.333,579.734,471.8,579.734Z" transform="translate(-466.26 -578.052)" fill="#518432"/>
            <path id="Path_14" data-name="Path 14" d="M488.6,592.773h.717v1.271h-.882a3.215,3.215,0,0,1-2.769-1.251,3.3,3.3,0,0,1-2.789,1.251H482v-1.271h.718a2.033,2.033,0,0,0,2.257-2.339v-4.452l1.374-.717v5.169Q486.347,592.773,488.6,592.773Zm-4.657,3.427a.841.841,0,1,1-.822.841A.735.735,0,0,1,483.948,596.2Zm2.337,0a.841.841,0,1,1-.819.841A.734.734,0,0,1,486.285,596.2Z" transform="translate(-472.19 -580.77)" fill="#518432"/>
            <path id="Path_15" data-name="Path 15" d="M493.093,591.388v-1.271h.717q2.258,0,2.257-2.34v-4.452l1.374-.717v5.208a3.554,3.554,0,0,1-1,2.69,3.418,3.418,0,0,1-2.462.881Zm3.569-11.488a.753.753,0,0,1-.841-.862.734.734,0,0,1,.841-.821.717.717,0,0,1,.8.821C497.463,579.612,497.2,579.9,496.662,579.9Z" transform="translate(-476.371 -578.114)" fill="#518432"/>
            <path id="Path_16" data-name="Path 16" d="M511.174,593.135a4.411,4.411,0,0,1-2.217.493,3.266,3.266,0,0,1-2.789-1.374,4.865,4.865,0,0,1-.862-2.956,4.686,4.686,0,0,1,1.149-3.363,3.493,3.493,0,0,1,2.667-1.068,3.287,3.287,0,0,1,2.627,1.068,3.63,3.63,0,0,1,.8,2.461v4.513a5.716,5.716,0,0,1-.8,3.15,3.6,3.6,0,0,1-2.277,1.59,3.808,3.808,0,0,1-1.068.143,5.061,5.061,0,0,1-2.32-.575v-1.21a4.439,4.439,0,0,0,2.114.575,2.891,2.891,0,0,0,1.478-.37Q511.112,595.5,511.174,593.135Zm0-4.615q0-2.4-2.052-2.4a2.2,2.2,0,0,0-1.817.843,3.643,3.643,0,0,0-.666,2.319,3.74,3.74,0,0,0,.636,2.287,2.038,2.038,0,0,0,1.723.852,2.352,2.352,0,0,0,2.175-.9Z" transform="translate(-480.972 -580.62)" fill="#518432"/>
            <path id="Path_17" data-name="Path 17" d="M527.655,592.773h.719v1.271h-.884a3.5,3.5,0,0,1-2.113-.613q-.163,3.4-2.748,4.306a4.237,4.237,0,0,1-1.4.227,4.917,4.917,0,0,1-2.3-.574v-1.211a4.386,4.386,0,0,0,2.133.574,2.9,2.9,0,0,0,1.519-.389,3.442,3.442,0,0,0,1.435-3.221v-7.16l1.354-.717v.019l.021-.019v5.169Q525.4,592.773,527.655,592.773Z" transform="translate(-486.108 -580.77)" fill="#518432"/>
            <path id="Path_18" data-name="Path 18" d="M540.028,590.155h.717v1.271h-.881a3.216,3.216,0,0,1-2.77-1.251,3.306,3.306,0,0,1-2.791,1.251h-.883v-1.271h.719q2.256,0,2.257-2.34v-4.451l1.373-.717v5.168Q537.77,590.154,540.028,590.155ZM535.495,580a.842.842,0,1,1,.819-.842A.735.735,0,0,1,535.495,580Zm2.338,0a.842.842,0,1,1,.821-.842A.735.735,0,0,1,537.832,580Z" transform="translate(-491.566 -578.151)" fill="#518432"/>
            <path id="Path_19" data-name="Path 19" d="M555.41,590.08h.513v1.271h-.677a3.714,3.714,0,0,0-5.56,0h-5.171V590.08h5.028q2.236,0,2.236-2.4v-.2a2.856,2.856,0,0,0-1.23-2.525,4.181,4.181,0,0,0-2.464-.7,6.5,6.5,0,0,0-2.2.391v-1.353l4.659-5.17h1.415l-4.207,4.758c.137-.011.28-.019.432-.019a5.236,5.236,0,0,1,3.281,1.005,4.273,4.273,0,0,1,1.684,3.591v.286Q553.154,590.081,555.41,590.08Z" transform="translate(-495.747 -578.077)" fill="#518432"/>
            <path id="Path_20" data-name="Path 20" d="M562.162,591.351V590.08h.575a2.1,2.1,0,0,0,2.338-2.422v-8.821l1.374-.718v9.561a3.671,3.671,0,0,1-1.026,2.75,3.527,3.527,0,0,1-2.544.922Z" transform="translate(-502.396 -578.077)" fill="#518432"/>
            <path id="Path_21" data-name="Path 21" d="M581.885,578.837l1.355-.718v9.561a3.678,3.678,0,0,1-1.026,2.75,3.455,3.455,0,0,1-2.524.922h-6.73l.656-1.271h3.139v-8.574l1.355-.721v9.295h1.436a2.1,2.1,0,0,0,2.338-2.422Zm-3.428,15.306a1.326,1.326,0,0,0-.8-.308.778.778,0,0,0-.556.216.679.679,0,0,0-.225.5,1.106,1.106,0,0,0,.286.7h1.807l-.389.738H575.4l.387-.738h.535a1.507,1.507,0,0,1-.206-.739,1.337,1.337,0,0,1,.431-.994,1.419,1.419,0,0,1,1.026-.421,1.647,1.647,0,0,1,.881.266Z" transform="translate(-506.465 -578.077)" fill="#518432"/>
            <path id="Path_22" data-name="Path 22" d="M595.676,591.351V578.837l1.374-.718v13.232Z" transform="translate(-515.024 -578.077)" fill="#518432"/>
            <path id="Path_23" data-name="Path 23" d="M621.625,590.055h.7v1.271h-.881a3.12,3.12,0,0,1-3.058-1.722,3.5,3.5,0,0,1-2.625,1.109,3.336,3.336,0,0,1-2.793-1.336,4.509,4.509,0,0,1-.859-2.812,4.355,4.355,0,0,1,1.148-3.159,3.523,3.523,0,0,1,4.719-.265v-1.108l1.374-.719v6.4A2.041,2.041,0,0,0,621.625,590.055Zm-3.652-5.355a2.76,2.76,0,0,0-2.2-1.089,2.026,2.026,0,0,0-1.673.832,3.4,3.4,0,0,0-.645,2.144,3.306,3.306,0,0,0,.645,2.134,2.072,2.072,0,0,0,1.693.8,2.678,2.678,0,0,0,2.215-1.168,5.568,5.568,0,0,1-.04-.6Zm-2.668-4.966a.752.752,0,0,1-.841-.862.735.735,0,0,1,.841-.82.716.716,0,0,1,.8.82C616.105,579.449,615.839,579.734,615.3,579.734Zm2.34,0a.752.752,0,0,1-.842-.862.735.735,0,0,1,.842-.82.716.716,0,0,1,.8.82C618.443,579.449,618.177,579.734,617.644,579.734Z" transform="translate(-521.214 -578.052)" fill="#518432"/>
            <path id="Path_24" data-name="Path 24" d="M634.448,592.773h.717v1.271h-.882a3.212,3.212,0,0,1-2.77-1.251,3.309,3.309,0,0,1-2.79,1.251h-.883v-1.271h.719q2.255,0,2.256-2.339v-4.452l1.375-.717v5.169Q632.191,592.773,634.448,592.773Zm-4.658,3.427a.841.841,0,1,1-.821.841A.736.736,0,0,1,629.791,596.2Zm2.337,0a.841.841,0,1,1-.821.841A.735.735,0,0,1,632.128,596.2Z" transform="translate(-527.143 -580.77)" fill="#518432"/>
            <path id="Path_25" data-name="Path 25" d="M649.44,592.623v1.271h-10.5v-1.271h3.445a4.763,4.763,0,0,1-1.292-3.49,4.09,4.09,0,0,1,1.416-3.28,4.027,4.027,0,0,1,2.645-.986,3.832,3.832,0,0,1,3.3,1.662v1.354a3.713,3.713,0,0,0-3.158-1.766h-.062a2.577,2.577,0,0,0-2,.843,3.147,3.147,0,0,0-.771,2.217,3.4,3.4,0,0,0,.945,2.521,3.228,3.228,0,0,0,2.419.925Z" transform="translate(-531.325 -580.62)" fill="#518432"/>
            <path id="Path_26" data-name="Path 26" d="M660.7,591.351V578.837l1.373-.718v13.232Z" transform="translate(-539.524 -578.077)" fill="#518432"/>
            <path id="Path_27" data-name="Path 27" d="M671.682,593.059q0,3.734-2.751,4.677a4.222,4.222,0,0,1-1.395.227,4.923,4.923,0,0,1-2.3-.574v-1.211a4.392,4.392,0,0,0,2.135.574,2.914,2.914,0,0,0,1.519-.389,3.443,3.443,0,0,0,1.434-3.221v-7.16l1.356-.717Z" transform="translate(-541.235 -580.77)" fill="#518432"/>
            <path id="Path_28" data-name="Path 28" d="M686.633,590.117h.718v1.271h-.883a3.486,3.486,0,0,1-2.111-.613q-.166,3.4-2.752,4.306a4.229,4.229,0,0,1-1.4.226,4.921,4.921,0,0,1-2.3-.574v-1.21a4.4,4.4,0,0,0,2.136.573,2.912,2.912,0,0,0,1.517-.389A3.439,3.439,0,0,0,683,590.486v-7.16l1.357-.717v.019l.017-.019v5.168A2.033,2.033,0,0,0,686.633,590.117ZM683.554,579.9a.753.753,0,0,1-.84-.862.734.734,0,0,1,.84-.821.718.718,0,0,1,.8.821C684.357,579.612,684.087,579.9,683.554,579.9Z" transform="translate(-546.01 -578.114)" fill="#518432"/>
            <path id="Path_29" data-name="Path 29" d="M692.4,591.351V590.08h.575a2.106,2.106,0,0,0,2.339-2.422v-8.821l1.374-.718v9.561a3.676,3.676,0,0,1-1.027,2.75,3.528,3.528,0,0,1-2.543.922Z" transform="translate(-551.47 -578.077)" fill="#518432"/>
            <path id="Path_30" data-name="Path 30" d="M705.5,591.351V578.837l1.374-.718v13.232Z" transform="translate(-556.406 -578.077)" fill="#518432"/>
            <path id="Path_31" data-name="Path 31" d="M731.45,590.055h.7v1.271h-.883a3.117,3.117,0,0,1-3.057-1.722,3.509,3.509,0,0,1-2.627,1.109,3.324,3.324,0,0,1-2.788-1.336,4.481,4.481,0,0,1-.864-2.812,4.363,4.363,0,0,1,1.149-3.159,3.521,3.521,0,0,1,4.717-.265v-1.108l1.375-.719v6.4A2.042,2.042,0,0,0,731.45,590.055ZM727.8,584.7a2.75,2.75,0,0,0-2.193-1.089,2.03,2.03,0,0,0-1.673.832,3.4,3.4,0,0,0-.647,2.144,3.3,3.3,0,0,0,.647,2.134,2.075,2.075,0,0,0,1.693.8,2.684,2.684,0,0,0,2.217-1.168,5.885,5.885,0,0,1-.044-.6Zm-2.665-4.966a.751.751,0,0,1-.84-.862.734.734,0,0,1,.84-.82.716.716,0,0,1,.8.82C725.93,579.449,725.664,579.734,725.131,579.734Zm2.337,0a.752.752,0,0,1-.84-.862.735.735,0,0,1,.84-.82.717.717,0,0,1,.8.82C728.269,579.449,728,579.734,727.468,579.734Z" transform="translate(-562.596 -578.052)" fill="#518432"/>
            <path id="Path_32" data-name="Path 32" d="M758.184,592.623h.718v1.271h-.882a3.713,3.713,0,0,0-5.559,0h-8.35a3.218,3.218,0,0,1-2.771-1.251,3.3,3.3,0,0,1-2.79,1.251h-.882v-1.271h.718q2.259,0,2.257-2.339v-2.955l1.374-.717v3.672q0,1.93,1.5,2.257a12.077,12.077,0,0,1,2.648-5.292,6.444,6.444,0,0,1,4.965-2.381,4.565,4.565,0,0,1,3.652,1.58,5,5,0,0,1,1.148,3.344v.533A2.015,2.015,0,0,0,758.184,592.623Zm-5.828,0q2.2,0,2.2-2.422v-.41a3.678,3.678,0,0,0-1.087-2.77,3.189,3.189,0,0,0-2.32-.9,5.454,5.454,0,0,0-4.266,2.259,11.593,11.593,0,0,0-2.134,4.247Z" transform="translate(-568.526 -580.62)" fill="#518432"/>
            <path id="Path_33" data-name="Path 33" d="M777.689,590.117h.719v1.271h-.883a3.22,3.22,0,0,1-2.771-1.252,3.3,3.3,0,0,1-2.789,1.252h-.883v-1.271h.718q2.256,0,2.257-2.34v-4.452l1.375-.717v5.168Q775.432,590.117,777.689,590.117Zm-3.18-10.217a.753.753,0,0,1-.842-.862.734.734,0,0,1,.842-.821.718.718,0,0,1,.8.821C775.311,579.612,775.042,579.9,774.509,579.9Z" transform="translate(-581.117 -578.114)" fill="#518432"/>
            <path id="Path_34" data-name="Path 34" d="M795.082,592.623h.7v1.271H794.9a3.2,3.2,0,0,1-2.79-1.293,3.718,3.718,0,0,1-6.238.022,3.278,3.278,0,0,1-2.809,1.271h-.885v-1.271h.72a2.033,2.033,0,0,0,2.257-2.339v-.7a5.161,5.161,0,0,1,1.148-3.611,3.456,3.456,0,0,1,2.688-1.107,3.353,3.353,0,0,1,2.933,1.438,5.513,5.513,0,0,1,.882,3.281v.7A2.041,2.041,0,0,0,795.082,592.623Zm-6.093.411a2.075,2.075,0,0,0,1.785-.935,4.328,4.328,0,0,0,.656-2.533q0-3.446-2.441-3.449-2.462,0-2.461,3.449Q786.528,593.035,788.989,593.034Z" transform="translate(-585.297 -580.62)" fill="#518432"/>
            <path id="Path_35" data-name="Path 35" d="M803.345,591.351V590.08h.575a2.1,2.1,0,0,0,2.339-2.422v-8.821l1.374-.718v9.561a3.671,3.671,0,0,1-1.024,2.75,3.531,3.531,0,0,1-2.544.922Z" transform="translate(-593.274 -578.077)" fill="#518432"/>
            <path id="Path_36" data-name="Path 36" d="M816.451,591.351V578.837l1.374-.718v13.232Z" transform="translate(-598.212 -578.077)" fill="#518432"/>
          </g>
        </g>
      </g>
    </g>
  </g>
</svg>
